<?xml version="1.0" encoding="UTF-8"?>
<svg width="1132px" height="2024px" viewBox="0 0 1132 2024" version="1.1" xmlns="http://www.w3.org/2000/svg" xmlns:xlink="http://www.w3.org/1999/xlink">
    <defs></defs>
    <g id="KEY_BLACK" stroke="none" stroke-width="1" fill="none" fill-rule="evenodd">
        <g fill="#FFFFFF" fill-rule="nonzero" id="Shape">
            <path d="M808.87,642.76 L323.69,642.76 C152.22,642.76 12.79,782.21 12.79,953.64 L12.79,1712.84 C12.79,1884.27 152.22,2023.76 323.69,2023.76 L808.87,2023.76 C980.31,2023.76 1119.78,1884.28 1119.78,1712.85 L1119.78,953.64 C1119.78,782.21 980.31,642.76 808.87,642.76 Z M991.22,1712.84 C991.22,1813.39 909.42,1895.19 808.87,1895.19 L323.69,1895.19 C223.14,1895.19 141.34,1813.39 141.34,1712.84 L141.34,953.64 C141.34,853.09 223.14,771.29 323.69,771.29 L808.87,771.29 C909.42,771.29 991.22,853.09 991.22,953.64 L991.22,1712.84 Z"></path>
            <path d="M29.8,165.08 C193.16,57.08 378.13,-2.84217094e-14 564.7,-2.84217094e-14 L566.64,-2.84217094e-14 C753.87,0.39 939.33,58.26 1102.96,167.35 C1122.07371,180.088305 1132.9397,202.056026 1131.46486,224.978136 C1129.99002,247.900246 1116.39841,268.29433 1095.80986,278.478136 C1075.22131,288.661941 1050.76371,287.088305 1031.65,274.35 C959.54,226.27 882.85,189.43 803.72,164.86 C726.347157,140.715224 645.77257,128.389672 564.72,128.3 C484.233014,128.384935 404.213596,140.536669 327.33,164.35 C248.73,188.58 172.5,224.92 100.77,272.35 C71.1482074,291.947824 31.2478243,283.821793 11.65,254.2 C-7.94782435,224.578207 0.178207443,184.677824 29.8,165.08 Z"></path>
            <path d="M886.57,451.76 C878.384749,466.720386 864.587763,477.813016 848.218524,482.594177 C831.849285,487.375337 814.250791,485.452764 799.3,477.25 C763.271142,457.493223 724.899855,442.347635 685.09,432.17 C606.864621,412.188203 524.88045,412.116006 446.62,431.96 C407.062872,442.002292 368.914444,456.944543 333.06,476.44 C312.874494,487.400908 288.374743,486.760366 268.789565,474.759659 C249.204387,462.758953 237.509237,441.221274 238.109565,418.259659 C238.709893,395.298044 251.514494,374.400908 271.7,363.44 C317.036512,338.78869 365.272706,319.892626 415.29,307.19 C464.379096,294.757312 514.820974,288.462574 565.46,288.45 C616.451476,288.45893 667.241877,294.841744 716.65,307.45 C766.988458,320.322771 815.508896,339.472923 861.07,364.45 C892.201484,381.534535 903.612683,420.605585 886.57,451.76 Z"></path>
            <path d="M566.28,1010.66 C528.437523,1010.79708 497.792596,1041.43754 497.65,1079.28 L497.65,1148.86 C497.65,1186.7633 528.376698,1217.49 566.28,1217.49 C604.183302,1217.49 634.91,1186.7633 634.91,1148.86 L634.91,1079.28 C634.772851,1041.43528 604.124744,1010.79163 566.28,1010.66 Z"></path>
        </g>
    </g>
</svg>