<?xml version="1.0" encoding="utf-8"?><svg version="1.1" id="Calque_1" xmlns="http://www.w3.org/2000/svg" xmlns:xlink="http://www.w3.org/1999/xlink" x="0px" y="0px" viewBox="0 0 74.9 131" style="enable-background:new 0 0 74.9 131;" xml:space="preserve"><style type="text/css">.st0{fill:#FFFFFF;}</style><g><path class="st0" d="M52.7,130H22.2c-11.3,0-20.4-9.2-20.4-20.4V61.8c0-11.3,9.2-20.4,20.4-20.4h30.5c11.3,0,20.4,9.2,20.4,20.4 v47.7C73.1,120.8,63.9,130,52.7,130z M22.2,51.3c-5.8,0-10.6,4.7-10.6,10.6v47.7c0,5.8,4.7,10.6,10.6,10.6h30.5 c5.8,0,10.6-4.7,10.6-10.6V61.8c0-5.8-4.7-10.6-10.6-10.6H22.2z"/><path class="st0" d="M68.9,20.7c-0.9,0-1.9-0.3-2.7-0.8c-18-12-39.5-12-57.6-0.1c-2.3,1.5-5.3,0.9-6.8-1.4 c-1.5-2.3-0.9-5.3,1.4-6.8C13.6,4.6,25.4,1,37.3,1c0,0,0.1,0,0.1,0c11.9,0,23.8,3.7,34.2,10.7c2.3,1.5,2.9,4.6,1.4,6.8 C72.1,19.9,70.5,20.7,68.9,20.7z"/><path class="st0" d="M54,33.3c-0.8,0-1.6-0.2-2.4-0.6c-8.9-4.9-19.5-4.9-28.5,0c-2.4,1.3-5.4,0.4-6.7-2c-1.3-2.4-0.4-5.4,2-6.7 c11.9-6.5,26-6.4,37.9,0.1c2.4,1.3,3.3,4.3,2,6.7C57.4,32.3,55.8,33.3,54,33.3z"/><path class="st0" d="M37.4,81.6L37.4,81.6c-2.9,0-5.2-2.3-5.2-5.2v-4.4c0-2.9,2.3-5.2,5.2-5.2h0c2.9,0,5.2,2.3,5.2,5.2v4.4 C42.6,79.3,40.3,81.6,37.4,81.6z"/></g></svg>
