<?xml version="1.0" encoding="utf-8"?><svg version="1.1" id="Calque_1" xmlns="http://www.w3.org/2000/svg" xmlns:xlink="http://www.w3.org/1999/xlink" x="0px" y="0px" viewBox="0 0 1933 1751.4" style="enable-background:new 0 0 1933 1751.4;" xml:space="preserve"> <style type="text/css">.st0{fill:#36393E;}</style><g><path class="st0" d="M966.6,1751.4l246.1-1383.9c234.5,0,308.5,25.7,319.2,130.7c0,0,157.3-58.7,236.7-177.8 c-309.7-143.5-620.8-150-620.8-150L966.2,391.5l0.4,0L785,170.4c0,0-311.1,6.5-620.8,150C243.6,439.5,401,498.2,401,498.2 c10.7-105,84.6-130.7,317.6-130.9L966.6,1751.4z"/> <path class="st0" d="M966.5,106.5c250.3-1.9,536.8,38.7,830.1,166.6c39.2-70.6,49.3-101.7,49.3-101.7C1525.3,44.5,1225,1.1,966.5,0 C707.9,1.1,407.7,44.5,87.1,171.4c0,0,14.3,38.4,49.2,101.7C429.6,145.3,716.1,104.6,966.5,106.5L966.5,106.5z"/></g></svg>
